<svg width="92" height="92" viewBox="0 0 92 92" fill="none" xmlns="http://www.w3.org/2000/svg">
<g clip-path="url(#clip0_79_557)">
<path d="M90.4668 58.2525C84.809 58.2525 80.2045 53.6481 80.2045 47.9903C80.2045 47.1423 79.5191 46.457 78.6712 46.457C77.8233 46.457 77.1379 47.1423 77.1379 47.9903C77.1379 55.3408 83.1162 61.3191 90.4668 61.3191C91.3147 61.3191 92 60.6337 92 59.7858C92 58.9379 91.3131 58.2525 90.4668 58.2525Z" fill="#FF3A2F"/>
<path d="M89.3229 54.6615C90.1708 54.6615 90.8562 53.9761 90.8562 53.1282C90.8562 52.2803 90.1708 51.5949 89.3229 51.5949C87.9644 51.5949 86.862 50.4909 86.862 49.134C86.862 48.2861 86.1766 47.6007 85.3287 47.6007C84.4808 47.6007 83.7954 48.2861 83.7954 49.134C83.7939 52.1822 86.2732 54.6615 89.3229 54.6615Z" fill="#FF3A2F"/>
<path d="M30.6688 4.58762C36.3281 4.58762 40.931 9.19207 40.931 14.8499C40.931 15.6978 41.6179 16.3832 42.4643 16.3832C43.3107 16.3832 43.9976 15.6978 43.9976 14.8499C43.9976 7.49933 38.0178 1.52106 30.6688 1.52106C29.8224 1.52106 29.1355 2.20643 29.1355 3.05434C29.1355 3.90224 29.8209 4.58762 30.6688 4.58762Z" fill="#FF3A2F"/>
<path d="M30.2793 9.71181C30.2793 10.5597 30.9662 11.2451 31.8126 11.2451C33.1695 11.2451 34.272 12.3491 34.272 13.706C34.272 14.5539 34.9589 15.2393 35.8052 15.2393C36.6516 15.2393 37.3385 14.5539 37.3385 13.706C37.3385 10.6578 34.8592 8.17853 31.8126 8.17853C30.9662 8.17853 30.2793 8.86391 30.2793 9.71181Z" fill="#FF3A2F"/>
<path d="M67.5809 58.0946C65.6245 56.9783 63.599 56.6257 61.8756 57.1041C60.5815 57.4628 59.5266 58.2816 58.8152 59.4745C57.2512 61.3451 55.3101 63.5316 54.8409 63.8704C51.2116 66.3298 48.3245 66.04 45.1904 62.906L27.5791 45.2962C24.4436 42.1607 24.1553 39.2735 26.6116 35.6504C26.9551 35.175 29.1416 33.2354 31.0122 31.67C32.2051 30.9585 33.0238 29.9036 33.3826 28.6095C33.8595 26.8877 33.5083 24.8622 32.3829 22.8889C32.1177 22.435 25.8036 11.7419 19.9863 8.6646C17.0332 7.10219 13.4622 7.63884 11.0994 10.0016L7.20642 13.89C1.05183 20.0446 -1.17603 27.0195 0.58111 34.62C2.04693 40.9555 6.31865 47.6974 13.2798 54.6569L35.8267 77.2054C44.6614 86.0402 53.0884 90.4775 60.8161 90.4775C66.4908 90.4775 71.7898 88.0825 76.5951 83.2787L80.4851 79.3888C82.8478 77.026 83.386 73.455 81.8221 70.5019C78.7432 64.6831 68.0517 58.3705 67.5809 58.0946ZM78.317 77.2207L74.4271 81.1107C64.3549 91.1797 52.0979 89.1374 37.9963 75.0373L15.4478 52.4889C8.89917 45.9402 4.90343 39.6952 3.56948 33.93C2.04386 27.3354 3.9436 21.492 9.37448 16.0596L13.2644 12.1697C14.1338 11.3018 15.2776 10.848 16.4383 10.848C17.1544 10.848 17.8781 11.0197 18.5481 11.3754C23.5972 14.048 29.6736 24.3378 29.7257 24.4252C30.4142 25.6319 30.6764 26.8907 30.4264 27.7923C30.2731 28.3443 29.9297 28.7644 29.3777 29.0741L29.1477 29.2336C27.8398 30.3253 24.7272 32.9656 24.0756 33.927C23.1372 35.313 22.5147 36.6746 22.1881 38.0132C21.098 35.839 20.2163 33.3213 19.9265 30.5292C19.8391 29.689 19.0848 29.0956 18.243 29.1615C17.4012 29.2504 16.7879 30.0033 16.8753 30.8466C17.9823 41.5075 26.2728 48.4471 26.6254 48.7369C26.6638 48.7676 26.7082 48.7799 26.7481 48.8059L43.0208 65.0787C43.0898 65.1477 43.1619 65.209 43.2309 65.2764C43.2846 65.3546 43.3198 65.442 43.3904 65.5126C43.6801 65.7993 50.6029 72.5151 61.1749 73.6129C61.2286 73.6175 61.2822 73.6206 61.3344 73.6206C62.1102 73.6206 62.7756 73.0333 62.8584 72.2467C62.9458 71.4034 62.3341 70.6506 61.4907 70.5617C58.2494 70.2259 55.3776 69.2752 52.9841 68.1728C54.1571 67.8202 55.35 67.2345 56.5597 66.4157C57.5226 65.7625 60.1629 62.6515 61.2531 61.3436L61.4126 61.112C61.7223 60.5616 62.1424 60.2181 62.6944 60.0633C63.5959 59.8195 64.8548 60.0756 66.0461 60.7533C66.1489 60.8146 76.4387 66.891 79.1112 71.9401C80.0404 73.6926 79.7215 75.8162 78.317 77.2207Z" fill="#FF3A2F"/>
</g>
<defs>
<clipPath id="clip0_79_557">
<rect width="92" height="92" fill="white"/>
</clipPath>
</defs>
</svg>
